<?xml version="1.0" encoding="UTF-8" standalone="no"?>
<svg
   viewBox="0 0 22 22"
   version="1.1"
   id="svg139"
   sodipodi:docname="icon_info.svg"
   inkscape:version="1.1 (c68e22c387, 2021-05-23)"
   width="22"
   height="22"
   xmlns:inkscape="http://www.inkscape.org/namespaces/inkscape"
   xmlns:sodipodi="http://sodipodi.sourceforge.net/DTD/sodipodi-0.dtd"
   xmlns="http://www.w3.org/2000/svg"
   xmlns:svg="http://www.w3.org/2000/svg">
  <defs
     id="defs143" />
  <sodipodi:namedview
     id="namedview141"
     pagecolor="#ffffff"
     bordercolor="#666666"
     borderopacity="1.0"
     inkscape:pageshadow="2"
     inkscape:pageopacity="0.0"
     inkscape:pagecheckerboard="true"
     showgrid="false"
     inkscape:zoom="17.541667"
     inkscape:cx="21.691211"
     inkscape:cy="7.0973872"
     inkscape:window-width="1920"
     inkscape:window-height="1027"
     inkscape:window-x="-8"
     inkscape:window-y="-8"
     inkscape:window-maximized="1"
     inkscape:current-layer="svg139"
     fit-margin-top="1"
     fit-margin-left="1"
     fit-margin-right="1"
     fit-margin-bottom="1" />
  <path
     d="M 21,11 C 21,16.523 16.523,21 11,21 5.477,21 1,16.523 1,11 1,5.477 5.477,1 11,1 16.523,1 21,5.477 21,11 Z m -2,0 a 8,8 0 0 0 -8,-8 8,8 0 0 0 -8,8 8,8 0 0 0 8,8 8,8 0 0 0 8,-8 z m -9,6 v -7 h 2 v 7 z M 11,8.25 A 1.21,1.21 0 0 1 10.123,7.886 1.188,1.188 0 0 1 9.75,7 C 9.75,6.652 9.873,6.356 10.122,6.114 10.369,5.872 10.662,5.75 11,5.75 c 0.337,0 0.63,0.122 0.877,0.364 0.248,0.242 0.373,0.538 0.373,0.886 0,0.348 -0.124,0.644 -0.373,0.886 A 1.21,1.21 0 0 1 11,8.25 Z"
     id="path137"
     style="fill:#ffffff" />
</svg>
